<?xml version="1.0" encoding="UTF-8"?>
<!-- The dark twin of nav_status.svg: the same shape, drawn white. Edit both. -->
<!-- A rail part filled: how far along something is. -->
<svg width="48" height="48" viewBox="0 0 48 48" xmlns="http://www.w3.org/2000/svg">
  <g fill="#FFFFFF">
    <path fill-rule="evenodd" d="M10 12h28a6 6 0 0 1 0 12H10a6 6 0 0 1 0-12zm0 3a3 3 0 0 0 0 6h28a3 3 0 0 0 0-6z"/>
    <rect x="12" y="15" width="12" height="6" rx="3"/>
    <path fill-rule="evenodd" d="M10 28h28a6 6 0 0 1 0 12H10a6 6 0 0 1 0-12zm0 3a3 3 0 0 0 0 6h28a3 3 0 0 0 0-6z"/>
    <rect x="12" y="31" width="22" height="6" rx="3"/>
  </g>
</svg>
